<?xml version="1.0" standalone="no"?><!DOCTYPE svg PUBLIC "-//W3C//DTD SVG 1.1//EN" "http://www.w3.org/Graphics/SVG/1.1/DTD/svg11.dtd">
<svg t="1594015810292" class="icon" viewBox="0 0 1024 1024" version="1.1" xmlns="http://www.w3.org/2000/svg" p-id="4100"
     width="32" height="32"><defs><style type="text/css"></style></defs><path d="M752.299413 196.857507c0 0 92.571349-0.920976 92.571349 90.733491 0 0 8.568143 88.723717-92.571349 90.676186 0 0-90.61888 1.954515-89.700975-90.676186C662.598438 287.533692 661.619134 205.425649 752.299413 196.857507L752.299413 196.857507zM934.625972 77.94421c0 0 48.703235 3.794419 48.703235 46.747697l0 587.365478-48.703235-79.134315L934.625972 77.94421 934.625972 77.94421zM65.987389 847.043752c0 0 1.956561 46.803979 46.802956 46.803979l389.316843 0 384.094912-0.257873L767.143493 576.297398 639.570979 448.725908 463.720925 598.894046 286.906917 367.976816 112.848673 757.342778l-1.035586-632.590496L65.987389 124.752282 65.987389 847.043752 65.987389 847.043752zM934.625972 77.94421 112.790344 77.94421c0 0-46.802956-0.974188-46.802956 46.747697l868.63756 0L934.624948 77.94421 934.625972 77.94421zM886.202099 893.590881 772.539386 893.590881c-28.246321 0-56.291051 0.097214-84.142375 0.289596-27.851325 0.194428-53.740972 0.290619-77.665871 0.290619l-62.958914 0-40.009226 0c-14.908548 0-26.380834-2.515287-34.421974-7.537673-8.04114-5.025457-13.43294-11.495822-16.180518-19.420305s-3.040243-16.523325-0.883113-25.800619c2.157129-9.275247 5.981225-17.972327 11.471262-26.088168 2.7486-4.250814 8.140401-12.947893 16.181541-26.090215 8.042163-13.141298 17.749246-29.083385 29.126364-47.828308 11.374048-18.745946 23.925922-39.421848 37.656645-62.034868 13.729699-22.610974 27.65485-45.607734 41.776476-68.991304s27.851325-46.087665 41.188074-68.12047c13.335726-22.028713 37.703717-61.721737 37.703717-61.721737l95.760994 95.760994L886.202099 893.590881z" p-id="4101" fill="#00DFFF"></path><path d="M796.088732 503.293711c0.950651 1.578961 4.190439 7.03523 9.726525 16.365736 5.53404 9.329483 12.491499 21.110807 20.872377 35.340903 8.379854 14.232143 17.788132 30.360472 28.222785 48.384987 10.437723 18.026562 21.189601 36.449143 32.259728 55.267744 11.066033 18.814508 22.058388 37.474496 32.966832 55.973826 10.912537 18.501376 20.875446 35.499515 29.887704 50.996464 9.013281 15.495926 16.759709 28.779464 23.2444 39.845497 6.483668 11.070126 10.989285 18.661012 13.519921 22.771633 4.744048 7.906064 7.66968 15.811104 8.776897 23.719214 1.104147 7.906064 0.63138 15.022135-1.425466 21.346167-2.054799 6.324032-5.691629 11.464099-10.908444 15.417131-5.219885 3.950985-11.623735 5.770424-19.21462 5.454222-3.793396 0-11.858072-0.077771-24.190959-0.237407-12.33391-0.156566-27.198455-0.23536-44.593638-0.23536l-59.296501 0-66.88534 0c-22.772656 0-45.38363 0.078795-67.837015 0.23536-22.453385 0.159636-43.326784 0.237407-62.616106 0.237407l-50.760081 0-32.255635 0c-12.019755 0-21.269419-2.056845-27.752064-6.167466-6.483668-4.111644-10.829649-9.405207-13.045107-15.888875-2.214435-6.483668-2.450818-13.520945-0.711198-21.110807 1.739621-7.590885 4.822842-14.706957 9.248641-21.347191 2.215458-3.478218 6.563486-10.594289 13.046131-21.346167 6.483668-10.752902 14.309914-23.798009 23.481807-39.136346 9.17087-15.337313 19.290345-32.255635 30.360472-50.760081 11.06808-18.500353 22.296819-37.31793 33.6811-56.449663 11.385305-19.133779 22.453385-37.711903 33.206286-55.739489 10.751878-18.024515 20.397562-34.313503 28.937053-48.859801 8.537444-14.550391 15.653515-26.566052 21.347191-36.053124l9.957793-16.603143c4.428869-6.958482 10.202363-12.256138 17.318434-15.891945 7.115048-3.63683 14.465456-5.455245 22.057365-5.455245 7.590885 0 14.94334 1.661849 22.058388 4.980431C785.890462 491.670999 791.662933 496.650407 796.088732 503.293711L796.088732 503.293711zM784.229636 596.270289c0-3.794419-0.86981-7.352455-2.608407-10.674107-1.739621-3.319605-4.030803-6.323009-6.879688-9.012258-2.846838-2.687202-6.087649-4.823865-9.723455-6.405897-3.63683-1.579985-7.355525-2.371-11.148921-2.371-7.272637 0-13.995759 2.846838-20.162202 8.540514-6.164397 5.691629-9.250688 12.173251-9.250688 19.449981l0 124.284631c0 7.27366 3.086291 13.83817 9.250688 19.686365 6.166443 5.850242 12.889565 8.776897 20.162202 8.776897 7.590885 0 14.548344-2.76702 20.871353-8.302083 6.326079-5.533017 9.487072-11.93789 9.487072-19.209504L784.22759 596.270289 784.229636 596.270289zM753.870188 776.532839c-8.223289 0-15.258519 2.846838-21.11183 8.540514-5.848195 5.691629-8.772804 12.649088-8.772804 20.871353s2.924609 15.259542 8.772804 21.110807c5.852288 5.848195 12.887518 8.774851 21.11183 8.774851 8.222265 0 15.181771-2.926656 20.871353-8.774851 5.693676-5.850242 8.540514-12.887518 8.540514-21.110807s-2.845815-15.180747-8.540514-20.871353C769.050935 779.379677 762.092453 776.532839 753.870188 776.532839L753.870188 776.532839z" p-id="4102" fill="#00DFFF"></path></svg>
